<svg width="200" height="200" viewBox="0 0 200 200" fill="none" xmlns="http://www.w3.org/2000/svg">
  <rect width="200" height="200" fill="#F3F4F6"/>
  <path d="M60 80C60 68.9543 68.9543 60 80 60H120C131.046 60 140 68.9543 140 80V120C140 131.046 131.046 140 120 140H80C68.9543 140 60 131.046 60 120V80Z" fill="#D1D5DB"/>
  <path d="M70 90L90 110L110 90L130 110V120C130 125.523 125.523 130 120 130H80C74.4772 130 70 125.523 70 120V90Z" fill="#9CA3AF"/>
  <circle cx="85" cy="85" r="8" fill="#9CA3AF"/>
</svg>
